<svg xmlns="http://www.w3.org/2000/svg" viewBox="0 0 100 100">
  <defs>
    <linearGradient id="grad" x1="0%" y1="0%" x2="100%" y2="100%">
      <stop offset="0%" style="stop-color:#007BFF;stop-opacity:1" />
      <stop offset="100%" style="stop-color:#6F42C1;stop-opacity:1" />
    </linearGradient>
  </defs>
  <circle cx="50" cy="50" r="45" fill="url(#grad)" />
  <path d="M50 25 C36 25 25 36 25 50 C25 64 36 75 50 75 C64 75 75 64 75 50 C75 36 64 25 50 25 Z M50 30 C61 30 70 39 70 50 C70 61 61 70 50 70 C39 70 30 61 30 50 C30 39 39 30 50 30 Z" fill="white" opacity="0.8"/>
  <circle cx="50" cy="50" r="8" fill="white" />
  <circle cx="35" cy="40" r="4" fill="white" />
  <circle cx="65" cy="40" r="4" fill="white" />
  <circle cx="35" cy="60" r="4" fill="white" />
  <circle cx="65" cy="60" r="4" fill="white" />
  <line x1="50" y1="50" x2="35" y2="40" stroke="white" stroke-width="2" />
  <line x1="50" y1="50" x2="65" y2="40" stroke="white" stroke-width="2" />
  <line x1="50" y1="50" x2="35" y2="60" stroke="white" stroke-width="2" />
  <line x1="50" y1="50" x2="65" y2="60" stroke="white" stroke-width="2" />
</svg>
